<svg xmlns="http://www.w3.org/2000/svg" viewBox="0 0 227.7 167.82">
  <defs>
    <style>.cls-1{fill:currentColor;}</style>
  </defs>
  <g id="Layer_2" data-name="Layer 2">
    <g id="Layer_1-2" data-name="Layer 1">
      <path class="cls-1" d="M191.48,20.24c3.26-3.66,6.41-7.45,9.83-11,3.94-4,6.71-4.14,10.63-.42,4.33,4.12,8.58,8.35,12.66,12.71,4.24,4.53,4.14,6.36-.34,10.89-10.51,10.63-21,21.28-31.67,31.77a8.81,8.81,0,0,0-2.91,7c.1,18.28,0,36.56,0,54.85,0,16-6.52,22.6-22.72,22.64-17.78.06-35.57.12-53.35-.09-4,0-7.2.69-9.5,4-8,11.54-21.18,11.85-32.95,15-3.63,1-5.91-2.22-5-6.48.82-4,2-8,3.14-12.45-16.25,0-32,0-47.76,0a28.2,28.2,0,0,1-5-.21C5,146.41,0,140.53,0,128.67Q0,73.82,0,19C.06,7.05,7,.18,19,.17c49.37,0,98.73.21,148.1-.17,14.41-.11,21.38,5.76,22.9,19ZM94.79,5.4v0q-37.14,0-74.27,0C9.43,5.45,5.28,9.73,5.28,20.9q0,52.83,0,105.67c0,1.82,0,3.66.12,5.48a11.52,11.52,0,0,0,11.53,10.82c16.78.12,33.56,0,50.35,0,1.7,0,3.41.14,3.84-2.13C71.7,137.8,74,136,76,134Q128.59,81.27,181.23,28.55c1.41-1.41,2.71-2.72,2.94-5,1.28-12.52-3.62-18.16-16.11-18.17Q131.43,5.37,94.79,5.4Zm75,43c-1.54,1.43-2.54,2.29-3.47,3.22-28,28-55.76,56.16-84.1,83.76C74.45,143,75,152.55,71,162.28c5.28-1.37,9-2.57,12.9-3.29a27.82,27.82,0,0,0,15.25-8.49c20-20.4,40.34-40.52,60.62-60.69,8.45-8.4,17.06-16.65,25.18-24.56L177.19,56c-1.45,2.2-2.31,4.11-3.7,5.5q-42.26,42.38-84.64,84.64c-1.78,1.77-3.88,4.94-6.51,2.4-2.89-2.8,1-4.47,2.41-6.42a17.18,17.18,0,0,1,1.75-1.77q41.81-41.77,83.59-83.57c1.23-1.23,3-2.12,3.26-4.81C172.45,51.1,171.29,50,169.76,48.44ZM116,142.92c18.17,0,36.72,0,55.28,0,8.2,0,12.8-4.74,12.82-13.1q.06-25.66,0-51.33c0-1.21.6-2.68-.54-3.39Zm95.4-106.13,10-9.14L206.18,12.14c-3.13,3.22-6.85,6.19-9.53,9.9ZM201.79,36,183,53.85c1.83,1.83,3.56,4.29,5.59,5.38l18.16-18.1ZM177.64,48.17l17.83-18.31c-.76-.81-1.58-2.27-3.52-3L174.73,45.58A5.81,5.81,0,0,0,177.64,48.17Z"/><path class="cls-1" d="M41.54,46.44C37.17,43,32.35,42,28.19,39.82c-2.2-1.15-4.51-2.1-6.81-3.06-2.5-1-3.89-2.78-2.75-5.45s3.7-2.73,5.95-1.74c9.25,4.07,18.53,8.13,27.61,12.58,4,2,3.72,6-.32,8-8.67,4.16-17.43,8.15-26.21,12.09-2.43,1.08-5.46,2.27-6.94-1s1-5,3.84-6.28C28.72,52.23,34.82,49.44,41.54,46.44Z"/>
    </g>
  </g>
</svg>