<svg xmlns="http://www.w3.org/2000/svg" viewBox="0 0 567.72 360.89">
  <defs>
    <style>.cls-1{fill:currentColor;}</style>
  </defs>
  <g id="Layer_2" data-name="Layer 2">
    <g id="Layer_1-2" data-name="Layer 1">
      <path class="cls-1" d="M175.05,124.1c3.95-7.58,7.63-15.1,11.71-22.41,16.14-28.95,35.74-55.27,60.4-77.56A125.23,125.23,0,0,1,279.58,2.37c3.06-1.39,4.77-.84,6.72,1.56a68.64,68.64,0,0,1,12.57,24c.77,2.58,1.76,3.82,4.41,3.15,2.91-.73,4.37,1,5.36,3.19,6.5,14.22,8.8,29,5.35,44.41-1.47,6.56-5.56,11.4-11.3,15a185.88,185.88,0,0,0-44.1,38.91c-.5.6-.9,1.29-1.64,2.37,3.15.86,5.52-.55,7.93-1,11.71-2.46,23.31-2.63,34.74,1.42a30.88,30.88,0,0,1,3.22,1.29c8.73,4.17,9.52,5.9,6.92,15-.72,2.5-1.37,5-2.21,8.13a49.89,49.89,0,0,1,14,3.92c2.49-10.34,4.82-20.37,7.33-30.36,7.72-30.73,15.68-61.4,23.17-92.18,2.54-10.45,8.27-18.19,16.82-24.21A84.65,84.65,0,0,1,420.67,1.26a29,29,0,0,1,5.41.6c9.76,2,11.08,3.76,10.07,13.41-.42,4.09-1.12,8.16-.7,12.63,2.92.26,5.82.54,8.72.75,3.39.24,4.8,1.46,4.34,5.35-1.74,14.79-1.63,29.7-2.21,44.56-.05,1.17-.69,2.64.77,3.53,1.39-.13,1.39-1.32,1.69-2.16,5.15-14.64,10.75-29.14,15.23-44,3.39-11.19,10-19.43,19.82-24.94,21.94-12.27,45-14.08,68.94-6.41,3.69,1.19,4.31,3,3.49,6.61-1.19,5.27-2.74,10.54-2.78,16.24,3.49.78,6.79,1.69,10.16,2.24,3.92.65,4.6,2.79,3.81,6.31-3.44,15.31-5.78,30.82-8.11,46.32-3.64,24.18-6.45,48.45-8.91,72.79-4.2,41.51-6.29,83.1-6.6,124.8-.08,11.41.46,22.82.87,34.23a8.85,8.85,0,0,1-2.65,7.15c-11.36,11-25.27,16.54-40.72,18.65-2.9.4-4.31-.74-4.2-3.84.15-3.94,0-7.88,0-12.07-6.17,1-11.67,2.34-17.22,2.66-10.71.61-10.63.36-11.08-10.16-.68-16-.43-32.09.19-48.13,0-1.38.62-2.89-.32-4.2-1.63-.28-1.48.94-1.74,1.83-5.74,19.47-11.57,38.92-15.07,59-.61,3.51-2.15,5.06-5.79,5.23-11.94.57-23.52-1.21-32.6-9.15a35.58,35.58,0,0,0-14.2-7.72c-12.55-3.62-20.08-11.5-20.56-25.2-.13-3.86-1.11-7.7-1.74-11.86-3.21,1.53-2,4-2.44,5.81a503.14,503.14,0,0,0-8.85,51.28c-.3,2.74-1.4,4.18-4.07,4.75-13,2.75-24.31.05-33.36-10a9.73,9.73,0,0,0-5.61-3.5c-10.91-2.26-20.25-7.05-26.12-18.18-1.39,2.78-1.33,5.14-1.54,7.44-.24,2.47-.6,4.92-.87,7.39-1.26,11.31-2.69,22.61-3.66,33.95-.31,3.68-2.25,5.05-5.2,5.37-12.3,1.32-23.37-1.53-32.24-10.59a10.81,10.81,0,0,0-5.72-3.39A37.82,37.82,0,0,1,227,335a6.43,6.43,0,0,0-3.68-2.31c-6.47-1.25-11.49-4.88-15.76-9.7a6.75,6.75,0,0,0-4.12-2.55c-15.55-2.33-24.9-13-32.9-25-8.58-12.91-12.45-27.62-14.45-42.86-.19-1.47-.35-2.95-.59-4.42a6.45,6.45,0,0,0-.52-1.36c-1.67,0-1.61,1.43-2,2.4-10.52,27.21-24,52.71-44.65,73.7-16.29,16.54-35.11,28.24-59.53,27-7.66-.4-14.72-2.72-18.43-10.44-1.11-2.3-3.23-1.89-5.14-2.17-10-1.49-18.49-5.26-23-15-2.6-5.6-2.52-11.52-1.75-17.5C6.93,254.61,15,204.78,23,155,29.69,113.91,36.49,72.89,44.62,32.1c.34-1.69.59-3.11,2.34-4,18.47-9.39,37.6-15.4,58.7-12.23,21.38,3.21,34.77,16.63,44,34.88,3.72,7.37,7.46,14.64,11.64,21.77C170,87.4,172.86,104,173.92,121,174,121.87,173.5,122.94,175.05,124.1ZM425.67,10.79a6.76,6.76,0,0,0-1.47-.64,19.16,19.16,0,0,0-3.45-.31c-17.49.67-33.56,5.66-47.73,16.06a27.72,27.72,0,0,0-10.55,15.74c-22.27,83.28-41.88,167.14-56.19,252.19-1.09,6.46.71,11.36,5.45,15.47a30.37,30.37,0,0,0,19.53,7.54c9.8.29,11.21-1,12.53-10.56.06-.49.11-1,.19-1.47,8.46-52.49,21.68-103.95,33.68-155.67a20.72,20.72,0,0,1,3.79-8.56c1.23-1.51,2.56-3.48,4.83-2.66,1.93.69,2.06,2.81,2.13,4.67,0,1,0,2,0,3-.54,15.87-.85,31.76-1.66,47.62-1.63,31.9-3.91,63.75,2.23,95.51,1.39,7.2,4.44,11.79,11,14.46a65.53,65.53,0,0,0,22.12,5.15c4.86.21,8-1,7.95-6.63,0-2.11.78-4.22,1.23-6.32,5.12-23.82,12.78-46.91,20-70.13,9.24-29.64,18.19-59.38,27.38-89,1.14-3.68,2.28-8.77,7.37-7.77,5.26,1,3.45,6.05,2.95,9.58-5.25,37.41-7.83,75-9.49,112.73-.92,20.82-1.61,41.67-.86,62.52.1,2.73.25,5.07,4.06,4.36,13.43-2.5,25.65-7.61,36.14-16.51,2.57-2.18,3.52-4.86,3.41-8.33-2.92-92.67,5.54-184.42,22.67-275.43.94-5-.44-6.49-4.81-7.22-20.83-3.47-39.82.68-56.67,13.6a24.39,24.39,0,0,0-8.35,11.48c-10.15,29.05-20.4,58.07-30.52,87.13-5,14.38-9.83,28.81-14,43.47-.62,2.23-1.65,4.91-4.46,4.52-3.2-.44-1.83-3.44-1.78-5.3.63-23.17.34-46.33.06-69.5-.34-27.46-1.17-54.94,1.49-82.35A12,12,0,0,0,425.67,10.79ZM152,113.88c.08-16.3-1.23-32.45-6.77-47.92C139.1,48.73,129.79,33.71,111.4,27.5c-19.26-6.51-37.55-1.71-55.13,7-2.18,1.07-2.26,3.15-2.61,5-3.41,18.38-7,36.72-10.11,55.15-7,41.92-13.94,83.86-20.53,125.84-4.56,29.08-9.26,58.15-12.5,87.42-1.21,10.9,3.83,17.37,14.68,19.18s21.15-.73,31-4.94c17-7.28,30.33-19.38,41.57-33.79,20.37-26.14,33.43-55.73,41.29-87.8C146,172.05,151.67,143.37,152,113.88Zm104.34,75.67a7.89,7.89,0,0,1,0,1.79c-6.38,21.56-12.51,43.2-16.57,65.35-.39,2.16-1.7,3-3.36,3.86-13.45,7.1-26.39,3-33.5-10.55-3.61-6.86-3.88-14.27-4.19-21.71-1.56-37.59,6.54-72.6,27.81-104.1C241,102.73,259.69,85.58,281.4,71.67c6.66-4.26,10.09-10.19,10.92-17.89a62,62,0,0,0-6.09-33.73c-4-8.4-4.49-8.47-12.41-4-2.44,1.38-4.81,2.91-7.14,4.49-14.53,9.86-26.53,22.42-37.47,36-29.39,36.44-52.14,76-58.88,123.38-2.46,17.36-6,34.55-5.63,52.21.41,19.22,2.48,38.24,12.59,55,14.35,23.82,24.18,26.38,47,22.44,2.17-.38,4.29-1.64,6.31-1.09,0,4,0,7.6,0,11.21a12.06,12.06,0,0,0,4.37,9.63,38.27,38.27,0,0,0,28.59,9c3.1-.25,4.64-1.48,4.91-4.87.68-8.4,1.84-16.77,2.67-25.16,5.28-53.25,14.24-105.83,28.67-157.41,1.28-4.56-.24-6.25-4.21-7.55-10-3.28-19.91-2-29.89.16-24.4,5.3-37.65,21.19-42.84,44.77-.47,2.17-1.22,4.46,0,7.1C233.9,193,244.75,189.33,256.38,189.55Zm-34.82,64.21c4.58-.37,8.86.9,9.85-5.35,2.34-14.65,6.59-28.86,10.61-43.11.38-1.38,1.24-2.76-.31-4.23-5,1.35-10.09,2.66-15.14,4.14-1.29.38-2.72.65-3,2.7C221.42,222.93,219.76,238,221.56,253.76Z"/><path class="cls-1" d="M52.84,270c1.94-14.67,3.75-29.43,5.86-44.15C65.13,181,73.48,136.42,84.19,92.33c2.08-8.55,11.35-11.76,18.06-6,7,6,10,14.33,10.54,23,1.39,23.89-.21,47.63-5.83,71-6.22,25.84-14.36,51-28.73,73.64C73.14,262,67,268.72,57,270.62A4.83,4.83,0,0,1,52.84,270Zm50-138.75c-6.28,26.27-12,52.65-15.71,79.41A265.53,265.53,0,0,0,102.81,131.26Z"/>
    </g>
  </g>
</svg>